<svg width="140" height="161" viewBox="0 0 140 161" fill="none" xmlns="http://www.w3.org/2000/svg">
<path fill-rule="evenodd" clip-rule="evenodd" d="M15.3453 22.0565C15.3453 19.6384 17.3056 17.6787 19.7221 17.6787H99.4993C113.392 17.6787 124.655 28.9414 124.655 42.834C124.655 45.2522 122.694 47.2119 120.278 47.2119H107.721V38.0131C107.721 28.9543 100.377 21.6124 91.3196 21.6124C74.8294 21.6124 60.8464 32.3484 55.979 47.2119H40.5007C26.6081 47.2119 15.3453 35.9491 15.3453 22.0565ZM54.1402 59.2359H40.5007C19.9674 59.2359 3.32132 42.5898 3.32132 22.0565C3.32132 12.9994 10.6633 5.65466 19.7221 5.65466H99.4993C120.033 5.65466 136.679 22.3008 136.679 42.834C136.679 51.8912 129.337 59.2359 120.278 59.2359H107.721V117.79C107.721 138.324 91.0753 154.97 70.5421 154.97C61.4849 154.97 54.1402 147.628 54.1402 138.569V59.2359ZM95.6974 59.2359V117.79C95.6974 131.683 84.4346 142.946 70.5421 142.946C68.1239 142.946 66.1642 140.985 66.1642 138.569V59.2359H95.6974ZM95.6974 47.2119H68.9823C73.1723 39.1462 81.6026 33.6364 91.3196 33.6364C93.7377 33.6364 95.6974 35.5967 95.6974 38.0131V47.2119Z" fill="black"/>
</svg>
